<?xml version="1.0" encoding="iso-8859-1"?>
<!-- Uploaded to: SVG Repo, www.svgrepo.com, Generator: SVG Repo Mixer Tools -->
<svg fill="#000000" height="800px" width="800px" version="1.1" id="Capa_1" xmlns="http://www.w3.org/2000/svg" xmlns:xlink="http://www.w3.org/1999/xlink" 
	 viewBox="0 0 490 490" xml:space="preserve">
<g id="Business_1_Bold_22_">
	<path d="M358.313,113.313C358.313,50.73,307.582,0,245,0c-62.582,0-113.313,50.73-113.313,113.313
		c0,62.582,50.73,113.313,113.313,113.313C307.582,226.625,358.313,175.895,358.313,113.313z M162.313,113.313
		c0-45.601,37.087-82.688,82.687-82.688c45.601,0,82.688,37.087,82.688,82.688C327.688,158.913,290.601,196,245,196
		C199.399,196,162.313,158.913,162.313,113.313z"/>
	<path d="M15.312,359.844c0,105.656,0,130.156,0,130.156s223.563,0,224.328,0L130.156,252.656
		C130.156,252.656,15.312,254.188,15.312,359.844z M45.938,459.375v-99.531c0-31.283,12.219-51.879,38.48-64.848
		c9.494-4.686,19.217-7.503,27.302-9.203l80.069,173.582H45.938z"/>
	<path d="M359.844,252.656L250.359,490h224.328c0,0,0-24.5,0-130.156C474.688,254.188,359.844,252.656,359.844,252.656z
		 M444.063,459.375H298.211l80.268-173.996c25.235,4.87,65.583,21.024,65.583,74.465V459.375z"/>
	<polygon points="245,252.656 166.141,252.656 245,427.219 323.859,252.656 	"/>
</g>
</svg>